<svg width="32" height="32" viewBox="0 0 32 32" fill="none" xmlns="http://www.w3.org/2000/svg">
<circle cx="16" cy="16" r="12" stroke="white" stroke-width="2"/>
<circle cx="16" cy="16" r="12" stroke="white" stroke-width="2"/>
<path d="M21 18.3333C21 20.8576 18.816 23 16 23C13.184 23 11 20.8576 11 18.3333C11 17.4749 11.3098 16.3854 11.8509 15.1711C12.3842 13.9743 13.104 12.7394 13.8377 11.6143C14.5694 10.4921 15.303 9.49713 15.8544 8.78201C15.9045 8.71701 15.9531 8.65438 16 8.59421C16.0469 8.65438 16.0955 8.71701 16.1456 8.78201C16.697 9.49713 17.4306 10.4921 18.1623 11.6143C18.896 12.7394 19.6158 13.9743 20.1491 15.1711C20.6902 16.3854 21 17.4749 21 18.3333Z" stroke="white" stroke-width="2"/>
<path d="M21 18.3333C21 20.8576 18.816 23 16 23C13.184 23 11 20.8576 11 18.3333C11 17.4749 11.3098 16.3854 11.8509 15.1711C12.3842 13.9743 13.104 12.7394 13.8377 11.6143C14.5694 10.4921 15.303 9.49713 15.8544 8.78201C15.9045 8.71701 15.9531 8.65438 16 8.59421C16.0469 8.65438 16.0955 8.71701 16.1456 8.78201C16.697 9.49713 17.4306 10.4921 18.1623 11.6143C18.896 12.7394 19.6158 13.9743 20.1491 15.1711C20.6902 16.3854 21 17.4749 21 18.3333Z" stroke="white" stroke-width="2"/>
<path d="M16 21C17.2082 20.3866 18 19.3613 18 18.2C18 17.2624 17.3787 16.0984 16.5916 15" stroke="white" stroke-width="2"/>
<path d="M16 21C17.2082 20.3866 18 19.3613 18 18.2C18 17.2624 17.3787 16.0984 16.5916 15" stroke="white" stroke-width="2"/>
</svg>
