<svg width="24" height="24" viewBox="0 0 24 24" fill="none" xmlns="http://www.w3.org/2000/svg">
<path d="M0 12C0 5.37258 5.37258 0 12 0C18.6274 0 24 5.37258 24 12C24 18.6274 18.6274 24 12 24C5.37258 24 0 18.6274 0 12Z" fill="#A2A2B8"/>
<path d="M9.42869 6.35777C9.20547 5.13009 10.1486 4 11.3964 4H12.6036C13.8514 4 14.7945 5.13009 14.5713 6.35777L13.1789 14.0161C13.0753 14.5859 12.5791 15 12 15C11.4209 15 10.9247 14.5859 10.8211 14.0161L9.42869 6.35777Z" fill="white"/>
<circle cx="12" cy="18" r="2" fill="white"/>
</svg>
