<svg width="25" height="24" viewBox="0 0 25 24" fill="none" xmlns="http://www.w3.org/2000/svg">
<rect x="2.5" y="2" width="20" height="20" stroke="#00407C" stroke-width="2" stroke-linejoin="round"/>
<rect x="2.5" y="2" width="20" height="20" stroke="#30419B" stroke-width="2" stroke-linejoin="round"/>
<path d="M15.5 6H18.5" stroke="#00407C" stroke-width="2" stroke-linecap="round" stroke-linejoin="round"/>
<path d="M15.5 6H18.5" stroke="#30419B" stroke-width="2" stroke-linecap="round" stroke-linejoin="round"/>
<path d="M15.5 10H18.5" stroke="#00407C" stroke-width="2" stroke-linecap="round" stroke-linejoin="round"/>
<path d="M15.5 10H18.5" stroke="#30419B" stroke-width="2" stroke-linecap="round" stroke-linejoin="round"/>
<path d="M15.5 14H18.5" stroke="#00407C" stroke-width="2" stroke-linecap="round" stroke-linejoin="round"/>
<path d="M15.5 14H18.5" stroke="#30419B" stroke-width="2" stroke-linecap="round" stroke-linejoin="round"/>
<path d="M15.5 18H18.5" stroke="#00407C" stroke-width="2" stroke-linecap="round" stroke-linejoin="round"/>
<path d="M15.5 18H18.5" stroke="#30419B" stroke-width="2" stroke-linecap="round" stroke-linejoin="round"/>
<path d="M6.5 6H7.5" stroke="#00407C" stroke-width="2" stroke-linecap="round" stroke-linejoin="round"/>
<path d="M6.5 6H7.5" stroke="#30419B" stroke-width="2" stroke-linecap="round" stroke-linejoin="round"/>
<path d="M6.5 10H7.5" stroke="#00407C" stroke-width="2" stroke-linecap="round" stroke-linejoin="round"/>
<path d="M6.5 10H7.5" stroke="#30419B" stroke-width="2" stroke-linecap="round" stroke-linejoin="round"/>
<path d="M6.5 14H7.5" stroke="#00407C" stroke-width="2" stroke-linecap="round" stroke-linejoin="round"/>
<path d="M6.5 14H7.5" stroke="#30419B" stroke-width="2" stroke-linecap="round" stroke-linejoin="round"/>
<path d="M6.5 18H7.5" stroke="#00407C" stroke-width="2" stroke-linecap="round" stroke-linejoin="round"/>
<path d="M6.5 18H7.5" stroke="#30419B" stroke-width="2" stroke-linecap="round" stroke-linejoin="round"/>
<path d="M11.5 2L11.5 22" stroke="#00407C" stroke-width="2" stroke-linecap="round" stroke-linejoin="round"/>
<path d="M11.5 2L11.5 22" stroke="#30419B" stroke-width="2" stroke-linecap="round" stroke-linejoin="round"/>
</svg>
