<svg width="33" height="32" viewBox="0 0 33 32" fill="none" xmlns="http://www.w3.org/2000/svg">
<rect x="5.5" y="6" width="23" height="20" stroke="#00407C" stroke-width="2" stroke-linejoin="round"/>
<rect x="5.5" y="6" width="23" height="20" stroke="#30419B" stroke-width="2" stroke-linejoin="round"/>
<path d="M5.5 14H27.5" stroke="#00407C" stroke-width="2" stroke-linecap="round" stroke-linejoin="round"/>
<path d="M5.5 14H27.5" stroke="#30419B" stroke-width="2" stroke-linecap="round" stroke-linejoin="round"/>
<path d="M18.5 10H24.5" stroke="#00407C" stroke-width="2" stroke-linecap="round" stroke-linejoin="round"/>
<path d="M18.5 10H24.5" stroke="#30419B" stroke-width="2" stroke-linecap="round" stroke-linejoin="round"/>
<path d="M9.5 10H10.5" stroke="#00407C" stroke-width="2" stroke-linecap="round" stroke-linejoin="round"/>
<path d="M9.5 10H10.5" stroke="#30419B" stroke-width="2" stroke-linecap="round" stroke-linejoin="round"/>
<path d="M9.5 18H10.5" stroke="#00407C" stroke-width="2" stroke-linecap="round" stroke-linejoin="round"/>
<path d="M9.5 18H10.5" stroke="#30419B" stroke-width="2" stroke-linecap="round" stroke-linejoin="round"/>
<path d="M9.5 22H10.5" stroke="#00407C" stroke-width="2" stroke-linecap="round" stroke-linejoin="round"/>
<path d="M9.5 22H10.5" stroke="#30419B" stroke-width="2" stroke-linecap="round" stroke-linejoin="round"/>
<path d="M18.5 18H24.5" stroke="#00407C" stroke-width="2" stroke-linecap="round" stroke-linejoin="round"/>
<path d="M18.5 18H24.5" stroke="#30419B" stroke-width="2" stroke-linecap="round" stroke-linejoin="round"/>
<path d="M18.5 22H24.5" stroke="#00407C" stroke-width="2" stroke-linecap="round" stroke-linejoin="round"/>
<path d="M18.5 22H24.5" stroke="#30419B" stroke-width="2" stroke-linecap="round" stroke-linejoin="round"/>
<path d="M14.5 6L14.5 26" stroke="#00407C" stroke-width="2" stroke-linecap="round" stroke-linejoin="round"/>
<path d="M14.5 6L14.5 26" stroke="#30419B" stroke-width="2" stroke-linecap="round" stroke-linejoin="round"/>
</svg>
